<svg xmlns="http://www.w3.org/2000/svg" width="19.345" height="19.345" viewBox="0 0 19.345 19.345"><defs><style>.a{fill:#ad0000;}</style></defs><g transform="translate(0)"><path class="a" d="M908.6,439.2a1.467,1.467,0,1,0,1.467,1.467A1.467,1.467,0,0,0,908.6,439.2Z" transform="translate(-898.798 -430.709)"/><path class="a" d="M912.439,438.477a1.378,1.378,0,0,0-.33-.506,1.364,1.364,0,0,0-.506-.329,2.436,2.436,0,0,0-.817-.152c-.465-.021-.6-.026-1.779-.026s-1.315,0-1.779.026a2.445,2.445,0,0,0-.818.152,1.453,1.453,0,0,0-.835.835,2.446,2.446,0,0,0-.152.818c-.021.464-.026.6-.026,1.779s.005,1.315.026,1.779a2.438,2.438,0,0,0,.152.818,1.462,1.462,0,0,0,.835.835,2.445,2.445,0,0,0,.818.152c.463.021.6.026,1.779.026s1.314,0,1.779-.026a2.436,2.436,0,0,0,.817-.152,1.469,1.469,0,0,0,.837-.835,2.47,2.47,0,0,0,.152-.818c.021-.464.025-.6.025-1.779s0-1.315-.025-1.779A2.441,2.441,0,0,0,912.439,438.477Zm-3.432,4.858a2.261,2.261,0,1,1,2.261-2.261A2.261,2.261,0,0,1,909.007,443.335Zm2.349-4.083a.528.528,0,1,1,0-1.056h0a.528.528,0,1,1,0,1.056Z" transform="translate(-899.201 -431.113)"/><path class="a" d="M910.041,432.309h0a9.673,9.673,0,1,0,9.673,9.673A9.673,9.673,0,0,0,910.041,432.309Zm4.508,11.776a3.232,3.232,0,0,1-.2,1.069,2.256,2.256,0,0,1-1.289,1.287,3.262,3.262,0,0,1-1.068.2c-.469.021-.62.026-1.815.026s-1.345,0-1.816-.026a3.261,3.261,0,0,1-1.068-.2,2.185,2.185,0,0,1-.78-.508,2.15,2.15,0,0,1-.508-.78,3.2,3.2,0,0,1-.2-1.069c-.022-.469-.027-.62-.027-1.815s.005-1.345.027-1.815a3.2,3.2,0,0,1,.2-1.069,2.249,2.249,0,0,1,1.287-1.287,3.26,3.26,0,0,1,1.068-.2c.471-.021.62-.026,1.816-.026s1.345,0,1.815.026a3.244,3.244,0,0,1,1.069.2,2.146,2.146,0,0,1,.779.508,2.17,2.17,0,0,1,.509.78,3.232,3.232,0,0,1,.2,1.069c.022.469.027.62.027,1.815S914.571,443.615,914.549,444.085Z" transform="translate(-900.368 -432.309)"/></g></svg>