<svg xmlns="http://www.w3.org/2000/svg" width="19.346" height="19.346" viewBox="0 0 19.346 19.346"><defs><style>.a{fill:#ad0000;}</style></defs><path class="a" d="M950.6,452.05a9.643,9.643,0,1,1,3.765-.76A9.617,9.617,0,0,1,950.6,452.05Zm2.305-9.755a.529.529,0,0,1,.452.169.775.775,0,0,1,.108.476v3.781h1.887v-3.732a2.907,2.907,0,0,0-.459-1.737,1.647,1.647,0,0,0-1.336-.683,2.915,2.915,0,0,0-1.116.223,3.046,3.046,0,0,0-.5.261v-.489h-1.887v6.156h1.887v-3.771a.942.942,0,0,1,.962-.654Zm-5.667-1.73v6.155h1.892v-6.155Zm.945-2.533h0a.892.892,0,0,0-.891.892.893.893,0,0,0,.26.633.891.891,0,0,0,1.263,0,.894.894,0,0,0,.261-.633.883.883,0,0,0-.261-.628.909.909,0,0,0-.63-.264Z" transform="translate(-940.928 -432.704)"/></svg>