<svg xmlns="http://www.w3.org/2000/svg" width="253.766" height="51.645" viewBox="0 0 253.766 51.645"><defs><style>.a{fill:#af0000;}.b{fill:none;}.c{fill:#595959;}</style></defs><g transform="translate(428.006 -459.048)"><g transform="translate(-428.006 459.048)"><path class="a" d="M-373.52,522.631l0,0h0Z" transform="translate(408.641 -481.645)"/><path class="a" d="M-374.065,491.388c-2.831-1.155-7.042-2.517-14.993,2.344-11.106,6.789-24.159,4.234-28.929-4.028s-.11-19.882,10.409-25.956c6.231-3.6,13.116-4.439,18.687-2.811,1.934.565,2,.379.12-.346-7.014-2.7-16.158-1.909-24.36,2.827-12.74,7.356-18.384,21.431-12.608,31.437,5.676,9.83,20.25,12.054,32.854,5.179,2.838-1.548,6.853-4.687,10.722-4.56,3.278.107,4.97,1.92,5.589,3.493.7,1.773-.208,4.737-2.2,6.726a21.729,21.729,0,0,1-8.294,4.644.183.183,0,0,0,.055.357c2.631,0,9.143-.371,14.02-3.735C-366.255,502.315-367.133,494.217-374.065,491.388Z" transform="translate(428.006 -459.048)"/><g transform="translate(30.775 15.796)"><path class="b" d="M-359.537,488.152l-.082-.008Z" transform="translate(372.926 -485.185)"/><path class="a" d="M-361.987,484.153c-2.965-1.2-7.194-.559-10.936,1.6-4.325,2.5-7.471,8.708-7.335,8.741s2.636-3.811,6.033-5.772c2.341-1.352,4.995-2.4,7.27-2.211h0l.082.008c4.985.415,6.1,3.924,6.117,3.978a14.9,14.9,0,0,0,1.063-2.62C-358.988,485.55-360.749,484.656-361.987,484.153Z" transform="translate(380.263 -483.554)"/></g><g transform="translate(14.286 2.639)"><path class="a" d="M-373.964,483.332a13.216,13.216,0,0,1-4.375,4.085,15.54,15.54,0,0,1-11.331,2.13c-.291-.058-.578-.127-.861-.2a9.976,9.976,0,0,1-6.187-4.557c-3.167-5.485-.5-13.01,6.364-17.238a15,15,0,0,1,17.96,1.41c.359.316.3.113.175-.072-4.352-6.429-14.5-7.667-23.154-2.669-8.968,5.178-12.942,15.086-8.875,22.13,2.79,4.834,8.612,6.738,14.939,6.312a29.008,29.008,0,0,0,12.678-4.5,28.84,28.84,0,0,0,3.349-2.593c1.586-1.619,1.442-3.614.1-5.438l-.426-.578A2.651,2.651,0,0,1-373.964,483.332Z" transform="translate(405.843 -463.141)"/></g><circle class="a" cx="1.195" cy="1.195" r="1.195" transform="translate(47.938 9.421)"/></g><g transform="translate(-362.217 469.277)"><path d="M-322.322,483.513a1.935,1.935,0,0,0,1.183-.274.787.787,0,0,0,.344-.618.631.631,0,0,0-.275-.541,3.028,3.028,0,0,0-.772-.369l-.721-.24q-.755-.257-1.372-.523A4.167,4.167,0,0,1-325,480.3a2.654,2.654,0,0,1-.695-.9,2.961,2.961,0,0,1-.249-1.278,2.809,2.809,0,0,1,1.124-2.334,5.019,5.019,0,0,1,3.148-.875,8.555,8.555,0,0,1,1.373.1,4.11,4.11,0,0,1,1.089.317,1.9,1.9,0,0,1,.712.549,1.242,1.242,0,0,1,.258.781,1.37,1.37,0,0,1-.206.763,2.123,2.123,0,0,1-.5.541,3.882,3.882,0,0,0-1.012-.42,5.066,5.066,0,0,0-1.39-.18,2.289,2.289,0,0,0-1.133.215.625.625,0,0,0-.36.541.5.5,0,0,0,.223.42,2.326,2.326,0,0,0,.669.3l.91.291a6.438,6.438,0,0,1,2.479,1.33,2.861,2.861,0,0,1,.867,2.188,3.041,3.041,0,0,1-.292,1.329,2.856,2.856,0,0,1-.866,1.047,4.216,4.216,0,0,1-1.425.678,7.181,7.181,0,0,1-1.947.24,7.881,7.881,0,0,1-1.467-.128,4.643,4.643,0,0,1-1.183-.378,2.182,2.182,0,0,1-.79-.617,1.356,1.356,0,0,1-.283-.85,1.286,1.286,0,0,1,.292-.849,2.223,2.223,0,0,1,.634-.541,4.656,4.656,0,0,0,1.176.652A4.1,4.1,0,0,0-322.322,483.513Z" transform="translate(325.943 -474.917)"/><path d="M-298.09,475.921a2.29,2.29,0,0,1,.094.669,1.321,1.321,0,0,1-.283.944,1.014,1.014,0,0,1-.763.291h-1.939V485.8a4.742,4.742,0,0,1-.584.1,6.255,6.255,0,0,1-.806.051,1.944,1.944,0,0,1-1.261-.309,1.437,1.437,0,0,1-.351-1.115v-6.709h-2.591a2.061,2.061,0,0,1-.215-.5,2.291,2.291,0,0,1-.094-.669,1.321,1.321,0,0,1,.283-.944,1.017,1.017,0,0,1,.764-.291h7.532A2.062,2.062,0,0,1-298.09,475.921Z" transform="translate(319.169 -475.097)"/><path d="M-285.081,485.443a1.576,1.576,0,0,1-.429-1.167v-7.258a1.576,1.576,0,0,1,.429-1.167,1.576,1.576,0,0,1,1.167-.429h5.662a2.134,2.134,0,0,1,.214.48,2.126,2.126,0,0,1,.095.652,1.319,1.319,0,0,1-.275.926.986.986,0,0,1-.755.291h-3.621v1.6h3.86a2.1,2.1,0,0,1,.215.48,2.125,2.125,0,0,1,.095.652,1.286,1.286,0,0,1-.275.918,1,1,0,0,1-.755.283h-3.14v1.8h4.41a2.059,2.059,0,0,1,.215.5,2.29,2.29,0,0,1,.094.669,1.285,1.285,0,0,1-.275.918,1,1,0,0,1-.755.283h-5.01A1.574,1.574,0,0,1-285.081,485.443Z" transform="translate(311.573 -475.097)"/><path d="M-257.09,478.659a3.078,3.078,0,0,1-.506,1.742,4.071,4.071,0,0,1-1.347,1.261q.326.447.66.858t.627.79q.292.377.523.7t.386.583a1.619,1.619,0,0,1-.627.918,1.742,1.742,0,0,1-1.021.317,2.209,2.209,0,0,1-.652-.085,1.582,1.582,0,0,1-.48-.241,1.934,1.934,0,0,1-.378-.377,4.961,4.961,0,0,1-.326-.48l-1.458-2.351h-.909v3.345a4.742,4.742,0,0,1-.583.1,6.271,6.271,0,0,1-.806.051,1.942,1.942,0,0,1-1.261-.309,1.437,1.437,0,0,1-.352-1.115V476.24a.754.754,0,0,1,.2-.558,1.406,1.406,0,0,1,.54-.317,6.417,6.417,0,0,1,1.356-.3,13.674,13.674,0,0,1,1.647-.095,5.453,5.453,0,0,1,3.569,1A3.322,3.322,0,0,1-257.09,478.659Zm-4.684,1.356a1.971,1.971,0,0,0,1.183-.335,1.138,1.138,0,0,0,.463-.987,1.185,1.185,0,0,0-.42-.986,2.134,2.134,0,0,0-1.33-.335q-.206,0-.386.017t-.369.052v2.574Z" transform="translate(304.496 -474.936)"/><path d="M-243.637,485.339a1.578,1.578,0,0,1-.429-1.167v-8.888c.137-.023.337-.054.6-.095a5.265,5.265,0,0,1,.79-.06,2.045,2.045,0,0,1,1.236.292,1.372,1.372,0,0,1,.377,1.132v6.795h3.929a2.312,2.312,0,0,1,.223.5,2.11,2.11,0,0,1,.1.669,1.388,1.388,0,0,1-.275.944.958.958,0,0,1-.755.309h-4.633A1.576,1.576,0,0,1-243.637,485.339Z" transform="translate(296.843 -474.993)"/><path d="M-223.475,485.853a1.941,1.941,0,0,1-1.261-.309,1.437,1.437,0,0,1-.352-1.115v-9.145c.137-.023.337-.054.6-.095a5.251,5.251,0,0,1,.789-.06,2.045,2.045,0,0,1,1.236.292,1.372,1.372,0,0,1,.377,1.132V485.7a4.742,4.742,0,0,1-.583.1A6.262,6.262,0,0,1-223.475,485.853Z" transform="translate(290.098 -474.993)"/><path d="M-202.921,485.724a4.011,4.011,0,0,1-1.089.129,3.774,3.774,0,0,1-1.2-.189,1.663,1.663,0,0,1-.927-.909l-1.7-3.466q-.257-.532-.463-1t-.447-1.089l-.12.035q.086,1.08.094,2t.009,1.758v2.728c-.126.023-.315.051-.566.086a5.755,5.755,0,0,1-.772.051,1.835,1.835,0,0,1-1.21-.3,1.4,1.4,0,0,1-.335-1.072v-8.63a1.437,1.437,0,0,1,.737-.515,3.248,3.248,0,0,1,1.064-.171,3.725,3.725,0,0,1,1.21.2,1.637,1.637,0,0,1,.917.9l1.716,3.466q.257.532.463,1t.446,1.089l.069-.017q-.07-.824-.077-1.553t-.009-1.4v-3.586c.126-.023.315-.052.567-.086a5.714,5.714,0,0,1,.772-.052,1.838,1.838,0,0,1,1.209.3,1.4,1.4,0,0,1,.335,1.072v8.853A1.557,1.557,0,0,1-202.921,485.724Z" transform="translate(285.321 -474.993)"/><path d="M-179.114,483.976a1.34,1.34,0,0,1-.189.79,1.968,1.968,0,0,1-.6.5,3.821,3.821,0,0,1-.6.266,6.578,6.578,0,0,1-.79.223,8.565,8.565,0,0,1-.9.146,8.68,8.68,0,0,1-.935.051,8.189,8.189,0,0,1-2.316-.317,5.124,5.124,0,0,1-1.879-.987,4.667,4.667,0,0,1-1.261-1.707,6.052,6.052,0,0,1-.463-2.479,5.761,5.761,0,0,1,.463-2.385,4.973,4.973,0,0,1,1.269-1.733,5.471,5.471,0,0,1,1.887-1.064,7.348,7.348,0,0,1,2.333-.36,5.462,5.462,0,0,1,2.582.514,1.533,1.533,0,0,1,.953,1.356,1.332,1.332,0,0,1-.224.772,1.827,1.827,0,0,1-.514.515,6.484,6.484,0,0,0-1.081-.5,4.293,4.293,0,0,0-1.493-.24,3.4,3.4,0,0,0-1.252.223,2.907,2.907,0,0,0-.978.627,2.735,2.735,0,0,0-.635.978,3.505,3.505,0,0,0-.223,1.278,3.916,3.916,0,0,0,.215,1.356,2.634,2.634,0,0,0,.6.969,2.534,2.534,0,0,0,.909.583,3.261,3.261,0,0,0,1.158.2,2.793,2.793,0,0,0,.661-.069,1.808,1.808,0,0,0,.438-.154v-1.648h-1.836a2.7,2.7,0,0,1-.2-.5,2.227,2.227,0,0,1-.094-.652,1.2,1.2,0,0,1,.283-.892,1,1,0,0,1,.729-.275h2.9a1.082,1.082,0,0,1,.8.283,1.079,1.079,0,0,1,.283.8Z" transform="translate(277.289 -474.917)"/><path d="M-145.469,483.976a1.34,1.34,0,0,1-.189.79,1.969,1.969,0,0,1-.6.5,3.821,3.821,0,0,1-.6.266,6.576,6.576,0,0,1-.79.223,8.538,8.538,0,0,1-.9.146,8.679,8.679,0,0,1-.935.051,8.189,8.189,0,0,1-2.316-.317,5.124,5.124,0,0,1-1.879-.987,4.667,4.667,0,0,1-1.261-1.707,6.052,6.052,0,0,1-.463-2.479,5.761,5.761,0,0,1,.463-2.385,4.973,4.973,0,0,1,1.269-1.733,5.472,5.472,0,0,1,1.887-1.064,7.347,7.347,0,0,1,2.333-.36,5.462,5.462,0,0,1,2.582.514,1.533,1.533,0,0,1,.953,1.356,1.332,1.332,0,0,1-.224.772,1.827,1.827,0,0,1-.514.515,6.484,6.484,0,0,0-1.081-.5,4.293,4.293,0,0,0-1.493-.24,3.4,3.4,0,0,0-1.252.223,2.907,2.907,0,0,0-.978.627,2.735,2.735,0,0,0-.635.978,3.506,3.506,0,0,0-.223,1.278,3.916,3.916,0,0,0,.215,1.356,2.634,2.634,0,0,0,.6.969,2.534,2.534,0,0,0,.909.583,3.261,3.261,0,0,0,1.158.2,2.793,2.793,0,0,0,.661-.069,1.808,1.808,0,0,0,.438-.154v-1.648h-1.836a2.7,2.7,0,0,1-.2-.5,2.228,2.228,0,0,1-.094-.652,1.2,1.2,0,0,1,.283-.892,1,1,0,0,1,.729-.275h2.9a1.082,1.082,0,0,1,.8.283,1.079,1.079,0,0,1,.283.8Z" transform="translate(265.331 -474.917)"/><path d="M-131.178,485.339a1.578,1.578,0,0,1-.429-1.167v-8.888c.137-.023.337-.054.6-.095a5.266,5.266,0,0,1,.79-.06,2.045,2.045,0,0,1,1.236.292,1.372,1.372,0,0,1,.377,1.132v6.795h3.929a2.312,2.312,0,0,1,.223.5,2.11,2.11,0,0,1,.1.669,1.388,1.388,0,0,1-.275.944.958.958,0,0,1-.755.309h-4.633A1.576,1.576,0,0,1-131.178,485.339Z" transform="translate(256.874 -474.993)"/><path d="M-103.365,480.424a6.417,6.417,0,0,1-.411,2.377,4.791,4.791,0,0,1-1.141,1.733,4.868,4.868,0,0,1-1.725,1.055,6.3,6.3,0,0,1-2.162.36,6.294,6.294,0,0,1-2.161-.36,4.709,4.709,0,0,1-1.716-1.064,4.96,4.96,0,0,1-1.133-1.733,6.34,6.34,0,0,1-.412-2.368,6.209,6.209,0,0,1,.421-2.368,4.891,4.891,0,0,1,1.149-1.724,4.892,4.892,0,0,1,1.715-1.055,6.192,6.192,0,0,1,2.136-.36,6.189,6.189,0,0,1,2.136.36,4.986,4.986,0,0,1,1.725,1.055,4.857,4.857,0,0,1,1.158,1.724A6.222,6.222,0,0,1-103.365,480.424Zm-3.088,0a3.585,3.585,0,0,0-.635-2.316,2.1,2.1,0,0,0-1.716-.772,2.1,2.1,0,0,0-1.689.763,3.548,3.548,0,0,0-.644,2.325,3.619,3.619,0,0,0,.635,2.334,2.106,2.106,0,0,0,1.716.772,2.087,2.087,0,0,0,1.7-.772A3.619,3.619,0,0,0-106.454,480.424Z" transform="translate(250.697 -474.917)"/><path d="M-80.83,477.99a2.044,2.044,0,0,1-.429,1.312,2.842,2.842,0,0,1-1.2.85,2.477,2.477,0,0,1,1.99,2.453,2.782,2.782,0,0,1-1.261,2.514,6.7,6.7,0,0,1-3.628.815q-.292,0-.686-.017t-.815-.069q-.421-.051-.832-.129a3.98,3.98,0,0,1-.754-.215,1.277,1.277,0,0,1-.944-1.252V476.24a.754.754,0,0,1,.2-.558,1.409,1.409,0,0,1,.541-.317,6.541,6.541,0,0,1,1.458-.3,16.9,16.9,0,0,1,1.8-.095,6.416,6.416,0,0,1,3.38.738A2.5,2.5,0,0,1-80.83,477.99Zm-5.645,1.338h1.252a1.687,1.687,0,0,0,1.073-.275.983.983,0,0,0,.335-.806.861.861,0,0,0-.386-.737,2,2,0,0,0-1.158-.275q-.258,0-.592.017a4.421,4.421,0,0,0-.523.052Zm2.934,3.14q0-1.046-1.407-1.046h-1.526v2.093a3.07,3.07,0,0,0,.618.095c.251.017.491.025.721.025A2.122,2.122,0,0,0-84,483.352.967.967,0,0,0-83.541,482.468Z" transform="translate(241.871 -474.936)"/><path d="M-62.19,483.564H-65.3c-.115.412-.214.8-.3,1.15s-.169.686-.248.995a4.464,4.464,0,0,1-.507.146,2.969,2.969,0,0,1-.643.06,2.248,2.248,0,0,1-1.3-.3.964.964,0,0,1-.42-.832,1.72,1.72,0,0,1,.069-.48c.046-.16.1-.349.154-.567q.12-.463.335-1.158t.471-1.493q.258-.8.549-1.63t.549-1.579q.257-.746.472-1.338t.335-.9a3.638,3.638,0,0,1,.884-.326,4.7,4.7,0,0,1,1.192-.154,4.309,4.309,0,0,1,1.518.248,1.32,1.32,0,0,1,.85.8q.308.875.669,2.059t.721,2.445q.36,1.261.7,2.487t.6,2.17a1.413,1.413,0,0,1-.618.386,2.933,2.933,0,0,1-.978.146,1.858,1.858,0,0,1-1.167-.274,1.643,1.643,0,0,1-.481-.875Zm-1.527-5.714q-.241.7-.532,1.562t-.567,1.836h2.128q-.24-.979-.489-1.844t-.437-1.553Z" transform="translate(234.52 -475.002)"/><path d="M-45.15,485.339a1.576,1.576,0,0,1-.429-1.167v-8.888c.137-.023.337-.054.6-.095a5.259,5.259,0,0,1,.79-.06,2.042,2.042,0,0,1,1.235.292,1.37,1.37,0,0,1,.378,1.132v6.795h3.929a2.312,2.312,0,0,1,.223.5,2.111,2.111,0,0,1,.1.669,1.388,1.388,0,0,1-.275.944.959.959,0,0,1-.755.309h-4.633A1.576,1.576,0,0,1-45.15,485.339Z" transform="translate(226.299 -474.993)"/></g><g transform="translate(-362.764 488.865)"><path class="c" d="M-321.484,506.428a.814.814,0,0,1-.137.472,1.134,1.134,0,0,1-.315.315,3.419,3.419,0,0,0-.582-.3,1.912,1.912,0,0,0-.719-.125,1.544,1.544,0,0,0-1.237.5,2.075,2.075,0,0,0-.43,1.4,1.937,1.937,0,0,0,.467,1.41,1.726,1.726,0,0,0,1.295.478,2.021,2.021,0,0,0,.729-.116,4.961,4.961,0,0,0,.571-.262,1.043,1.043,0,0,1,.278.351,1.078,1.078,0,0,1,.1.477.807.807,0,0,1-.126.44.943.943,0,0,1-.43.336,3.277,3.277,0,0,1-.535.168,3.6,3.6,0,0,1-.839.084,4.344,4.344,0,0,1-1.332-.2,2.994,2.994,0,0,1-1.08-.609,2.788,2.788,0,0,1-.724-1.044,3.96,3.96,0,0,1-.262-1.515,3.8,3.8,0,0,1,.257-1.447,3.055,3.055,0,0,1,.7-1.059,2.952,2.952,0,0,1,1.044-.65,3.666,3.666,0,0,1,1.28-.22,2.948,2.948,0,0,1,1.494.314A.929.929,0,0,1-321.484,506.428Z" transform="translate(326.791 -505.306)"/><path class="c" d="M-310.213,510.591h-1.9q-.1.377-.183.7t-.152.609a2.747,2.747,0,0,1-.309.089,1.858,1.858,0,0,1-.394.037,1.371,1.371,0,0,1-.792-.184.59.59,0,0,1-.257-.509,1.043,1.043,0,0,1,.042-.293c.028-.1.059-.214.094-.347.049-.189.117-.424.2-.708s.184-.587.289-.912.217-.657.336-1,.23-.661.335-.964.2-.577.288-.818.156-.425.2-.551a2.241,2.241,0,0,1,.54-.2,2.863,2.863,0,0,1,.728-.094,2.629,2.629,0,0,1,.928.152.807.807,0,0,1,.52.487q.188.536.409,1.258t.44,1.495q.22.771.43,1.521t.367,1.327a.869.869,0,0,1-.378.236,1.8,1.8,0,0,1-.6.089,1.136,1.136,0,0,1-.714-.168,1,1,0,0,1-.293-.535Zm-.933-3.492-.326.955q-.178.524-.345,1.122h1.3q-.147-.6-.3-1.127t-.268-.949Z" transform="translate(322.315 -505.358)"/><path class="c" d="M-299.8,511.676a.964.964,0,0,1-.262-.714V505.53l.367-.057a3.207,3.207,0,0,1,.483-.037,1.251,1.251,0,0,1,.755.178.84.84,0,0,1,.231.692v4.153h2.4a1.382,1.382,0,0,1,.137.3,1.291,1.291,0,0,1,.063.409.845.845,0,0,1-.168.576.585.585,0,0,1-.462.189h-2.832A.964.964,0,0,1-299.8,511.676Z" transform="translate(317.291 -505.352)"/><path class="c" d="M-288.2,511.676a.965.965,0,0,1-.262-.714V505.53l.367-.057a3.192,3.192,0,0,1,.482-.037,1.253,1.253,0,0,1,.755.178.84.84,0,0,1,.23.692v4.153h2.4a1.356,1.356,0,0,1,.136.3,1.29,1.29,0,0,1,.063.409.848.848,0,0,1-.168.576.585.585,0,0,1-.462.189h-2.832A.964.964,0,0,1-288.2,511.676Z" transform="translate(313.168 -505.352)"/><path class="c" d="M-265.536,506.428a.809.809,0,0,1-.137.472,1.124,1.124,0,0,1-.314.315,3.445,3.445,0,0,0-.582-.3,1.914,1.914,0,0,0-.719-.125,1.544,1.544,0,0,0-1.237.5,2.075,2.075,0,0,0-.43,1.4,1.939,1.939,0,0,0,.466,1.41,1.729,1.729,0,0,0,1.3.478,2.02,2.02,0,0,0,.728-.116,4.921,4.921,0,0,0,.572-.262,1.041,1.041,0,0,1,.278.351,1.077,1.077,0,0,1,.1.477.8.8,0,0,1-.126.44.94.94,0,0,1-.43.336,3.263,3.263,0,0,1-.534.168,3.6,3.6,0,0,1-.839.084,4.343,4.343,0,0,1-1.332-.2,3,3,0,0,1-1.08-.609,2.794,2.794,0,0,1-.723-1.044,3.961,3.961,0,0,1-.262-1.515,3.812,3.812,0,0,1,.257-1.447,3.055,3.055,0,0,1,.7-1.059,2.955,2.955,0,0,1,1.043-.65,3.671,3.671,0,0,1,1.28-.22,2.949,2.949,0,0,1,1.495.314A.928.928,0,0,1-265.536,506.428Z" transform="translate(306.906 -505.306)"/><path class="c" d="M-257.548,511.739a.964.964,0,0,1-.262-.714V506.59a.964.964,0,0,1,.262-.713.964.964,0,0,1,.713-.262h3.462a1.324,1.324,0,0,1,.131.293,1.3,1.3,0,0,1,.057.4.809.809,0,0,1-.168.567.6.6,0,0,1-.462.178h-2.213v.975h2.36a1.285,1.285,0,0,1,.131.294,1.288,1.288,0,0,1,.058.4.785.785,0,0,1-.168.561.614.614,0,0,1-.461.173h-1.919v1.1h2.7a1.274,1.274,0,0,1,.132.3,1.408,1.408,0,0,1,.057.409.784.784,0,0,1-.168.561.613.613,0,0,1-.462.173h-3.062A.964.964,0,0,1-257.548,511.739Z" transform="translate(302.275 -505.416)"/><path class="c" d="M-240.308,511.911a2.48,2.48,0,0,1-.666.079,2.312,2.312,0,0,1-.734-.115,1.017,1.017,0,0,1-.567-.556l-1.038-2.119q-.158-.325-.284-.614t-.272-.665l-.074.021q.053.66.058,1.221c0,.374.005.732.005,1.075v1.668q-.115.02-.346.052a3.536,3.536,0,0,1-.472.032,1.123,1.123,0,0,1-.739-.184.856.856,0,0,1-.2-.656v-5.275a.876.876,0,0,1,.451-.315,1.973,1.973,0,0,1,.65-.105,2.27,2.27,0,0,1,.739.121,1.006,1.006,0,0,1,.561.55l1.049,2.119q.157.325.283.614t.273.666l.042-.011q-.043-.5-.047-.949t-.006-.855V505.52c.077-.014.193-.032.346-.053a3.552,3.552,0,0,1,.472-.031,1.125,1.125,0,0,1,.739.183.854.854,0,0,1,.2.656v5.411A.963.963,0,0,1-240.308,511.911Z" transform="translate(297.949 -505.352)"/><path class="c" d="M-226.73,505.919a1.412,1.412,0,0,1,.057.409.805.805,0,0,1-.173.577.619.619,0,0,1-.466.178H-228.5v4.877a3.059,3.059,0,0,1-.356.062,3.869,3.869,0,0,1-.492.032,1.187,1.187,0,0,1-.771-.189.878.878,0,0,1-.215-.682v-4.1h-1.584a1.277,1.277,0,0,1-.131-.3,1.4,1.4,0,0,1-.057-.409.808.808,0,0,1,.173-.577.621.621,0,0,1,.467-.178h4.6A1.256,1.256,0,0,1-226.73,505.919Z" transform="translate(293.139 -505.416)"/><path class="c" d="M-218.779,511.739a.964.964,0,0,1-.262-.714V506.59a.963.963,0,0,1,.262-.713.964.964,0,0,1,.713-.262h3.461a1.323,1.323,0,0,1,.131.293,1.3,1.3,0,0,1,.057.4.809.809,0,0,1-.168.567.6.6,0,0,1-.462.178h-2.213v.975h2.36a1.284,1.284,0,0,1,.131.294,1.287,1.287,0,0,1,.058.4.785.785,0,0,1-.168.561.614.614,0,0,1-.462.173h-1.919v1.1h2.7a1.3,1.3,0,0,1,.131.3,1.407,1.407,0,0,1,.057.409.784.784,0,0,1-.168.561A.613.613,0,0,1-215,512h-3.062A.964.964,0,0,1-218.779,511.739Z" transform="translate(288.496 -505.416)"/><path class="c" d="M-201.671,507.593a1.881,1.881,0,0,1-.309,1.064,2.489,2.489,0,0,1-.823.771q.2.273.4.525t.383.482c.119.153.226.3.32.43s.173.251.236.357a.983.983,0,0,1-.383.561,1.061,1.061,0,0,1-.623.194,1.345,1.345,0,0,1-.4-.052.967.967,0,0,1-.294-.147,1.2,1.2,0,0,1-.231-.231,3.023,3.023,0,0,1-.2-.293l-.891-1.437h-.556v2.045a3.094,3.094,0,0,1-.356.063,3.89,3.89,0,0,1-.493.032,1.188,1.188,0,0,1-.771-.189.88.88,0,0,1-.215-.682v-4.97a.461.461,0,0,1,.121-.341.864.864,0,0,1,.33-.194,3.952,3.952,0,0,1,.829-.184,8.384,8.384,0,0,1,1.006-.057,3.331,3.331,0,0,1,2.181.614A2.03,2.03,0,0,1-201.671,507.593Zm-2.863.828a1.207,1.207,0,0,0,.723-.2.7.7,0,0,0,.284-.6.727.727,0,0,0-.257-.6,1.3,1.3,0,0,0-.813-.2c-.084,0-.162,0-.236.01s-.149.017-.226.032v1.573Z" transform="translate(284.171 -505.317)"/><path class="c" d="M-186.217,511.99a1.186,1.186,0,0,1-.77-.189.878.878,0,0,1-.215-.682V505.53l.367-.057a3.207,3.207,0,0,1,.483-.037,1.25,1.25,0,0,1,.755.178.838.838,0,0,1,.231.692v5.59a3.058,3.058,0,0,1-.356.063A3.872,3.872,0,0,1-186.217,511.99Z" transform="translate(277.18 -505.352)"/><path class="c" d="M-173.654,511.911a2.48,2.48,0,0,1-.666.079,2.306,2.306,0,0,1-.734-.115,1.017,1.017,0,0,1-.567-.556l-1.038-2.119q-.158-.325-.284-.614t-.273-.665l-.073.021q.052.66.058,1.221c0,.374.005.732.005,1.075v1.668q-.115.02-.346.052a3.551,3.551,0,0,1-.472.032,1.123,1.123,0,0,1-.739-.184.853.853,0,0,1-.2-.656v-5.275a.876.876,0,0,1,.451-.315,1.973,1.973,0,0,1,.65-.105,2.273,2.273,0,0,1,.739.121,1.006,1.006,0,0,1,.561.55l1.048,2.119q.158.325.283.614c.084.192.175.414.273.666l.042-.011q-.043-.5-.048-.949t-.005-.855V505.52c.077-.014.193-.032.346-.053a3.551,3.551,0,0,1,.472-.031,1.126,1.126,0,0,1,.739.183.854.854,0,0,1,.2.656v5.411A.963.963,0,0,1-173.654,511.911Z" transform="translate(274.26 -505.352)"/><path class="c" d="M-159.869,506.428a.809.809,0,0,1-.137.472,1.124,1.124,0,0,1-.314.315,3.445,3.445,0,0,0-.582-.3,1.914,1.914,0,0,0-.719-.125,1.544,1.544,0,0,0-1.237.5,2.075,2.075,0,0,0-.43,1.4,1.939,1.939,0,0,0,.466,1.41,1.729,1.729,0,0,0,1.3.478,2.02,2.02,0,0,0,.728-.116,4.919,4.919,0,0,0,.572-.262,1.041,1.041,0,0,1,.278.351,1.078,1.078,0,0,1,.1.477.8.8,0,0,1-.126.44.94.94,0,0,1-.43.336,3.265,3.265,0,0,1-.534.168,3.6,3.6,0,0,1-.839.084,4.343,4.343,0,0,1-1.332-.2,3,3,0,0,1-1.08-.609,2.794,2.794,0,0,1-.723-1.044,3.961,3.961,0,0,1-.262-1.515,3.814,3.814,0,0,1,.257-1.447,3.056,3.056,0,0,1,.7-1.059,2.956,2.956,0,0,1,1.043-.65,3.67,3.67,0,0,1,1.28-.22,2.949,2.949,0,0,1,1.495.314A.928.928,0,0,1-159.869,506.428Z" transform="translate(269.351 -505.306)"/><path class="c" d="M-152.6,513.589a1.037,1.037,0,0,1,.272-.734.967.967,0,0,1,.745-.293.965.965,0,0,1,.744.293,1.037,1.037,0,0,1,.273.734,1.036,1.036,0,0,1-.273.734.966.966,0,0,1-.744.294.967.967,0,0,1-.745-.294A1.035,1.035,0,0,1-152.6,513.589Z" transform="translate(264.881 -507.885)"/></g></g></svg>