<svg xmlns="http://www.w3.org/2000/svg" width="19.346" height="19.346" viewBox="0 0 19.346 19.346"><defs><style>.a{fill:#ad0000;}</style></defs><path class="a" d="M970.712,452.05a9.637,9.637,0,1,1,3.766-.76A9.618,9.618,0,0,1,970.712,452.05Zm-1.455-13.838c-.668.014-1.444.035-2.2.095l-.142.01a4.508,4.508,0,0,0-.86.121,1.454,1.454,0,0,0-1.08,1.1,8.374,8.374,0,0,0-.2,1.6l-.007.121c-.006.1-.011.211-.015.319,0,.053,0,.1-.006.158v1.3a13.734,13.734,0,0,0,.19,2.022,1.526,1.526,0,0,0,1.347,1.3,16.576,16.576,0,0,0,1.782.147c.339.014.685.022,1.02.031h.006l.526.014h.017l2.17,0h.312l.441-.014h.006c.28-.007.569-.015.854-.027a15.247,15.247,0,0,0,1.773-.148,1.481,1.481,0,0,0,1.26-1.17,9.59,9.59,0,0,0,.2-1.717,20.993,20.993,0,0,0,0-2.193,9.05,9.05,0,0,0-.207-1.716,1.447,1.447,0,0,0-1.047-1.093,4.353,4.353,0,0,0-.934-.139h-.005l-.108-.009c-.8-.063-1.583-.085-2.245-.1Zm.264,5.949v-3.575l3.106,1.788-3.1,1.788Z" transform="translate(-961.038 -432.704)"/></svg>